<svg width="190" height="57" fill='none' xmlns="http://www.w3.org/2000/svg"
    viewBox="0 0 390 170">
    <g id='Logo'>
        <path
        d="M92.241 40.259C80.559 51.951 71 61.851 71 62.259c0 2.581 4.796-1.539 23-19.759L114.482 22h6.759c3.717 0 6.759.304 6.759.675 0 .371-8.325 9.103-18.5 19.404C99.325 52.381 91 61.302 91 61.905c0 3.046 4.127-.51 22.187-19.12L132.875 22.5l20.321 20.25C164.373 53.888 174.076 63 174.759 63c3.131 0-.138-3.896-19.518-23.259L134.483 19h-21L92.241 40.259m25.417 7.992C110.696 54.989 105 61.064 105 61.751c0 2.724 2.817.892 10.729-6.979L124 46.544l8.271 8.228C139.663 62.126 143 64.458 143 62.27c0-.402-3.838-4.586-8.529-9.299l-8.529-8.568 2.56-2.405 2.56-2.405 11.734 11.704C153.759 62.231 157 64.642 157 61.863 157 60.41 132.831 36 131.393 36c-.593 0-6.774 5.513-13.735 12.251M41.047 70.25c.025.688 1.963 5.975 4.305 11.75 4.027 9.927 4.417 10.5 7.148 10.5s3.121-.573 7.148-10.5c5.294-13.053 5.292-13 .435-13-3.867 0-3.94.071-5.784 5.604l-1.868 5.604-1.767-5.604C48.911 69.043 48.868 69 44.949 69c-2.517 0-3.932.453-3.902 1.25m28.289 2.489C67.418 77.328 62 91.974 62 92.568c0 .238 1.791.432 3.981.432 3.412 0 4.071-.357 4.608-2.5.435-1.732 1.313-2.5 2.859-2.5 1.409 0 2.65.921 3.37 2.5.901 1.978 1.875 2.5 4.661 2.5 4.363 0 4.38.373-.599-12.965C76.923 69.435 76.645 69 73.829 69c-2.44 0-3.193.626-4.493 3.739m17.882 8.011L87.5 92.5l3.686.307c3.611.3 3.693.228 4-3.5L95.5 85.5l2.216 3.75c1.979 3.347 2.65 3.75 6.25 3.75 4.676 0 4.731-.136 1.907-4.706-1.763-2.852-1.934-3.864-1-5.915C108.369 74.708 103.536 69 93.545 69h-6.608l.281 11.75m22.782.274v12.25l6.62-.532c10.422-.836 15.618-6.675 13.326-14.975-1.628-5.896-5.034-8.15-12.995-8.6L110 68.774v12.25m24 .036v12.061l3.75-.311c3.649-.302 3.758-.426 4.061-4.622.455-6.322 4.532-5.864 4.996.562.298 4.117.415 4.25 3.75 4.25H154V69h-3.5c-3.417 0-3.5.095-3.5 4 0 3.6-.25 4-2.5 4s-2.5-.4-2.5-4v-4h-8v12.06m29.881-9.31c-.588 1.513-2.336 6.125-3.884 10.25s-3.129 8.287-3.513 9.25c-.597 1.497-.1 1.75 3.434 1.75 3.487 0 4.28-.39 5.082-2.5.587-1.544 1.734-2.5 3-2.5s2.413.956 3 2.5c.795 2.092 1.604 2.5 4.95 2.5h4l-2.87-7.75C171.068 69.018 171.058 69 167.867 69c-2.256 0-3.159.623-3.986 2.75M182 81v12h3.5c3.417 0 3.5-.095 3.5-4 0-4.989.736-4.985 4.442.024 2.214 2.992 3.636 3.976 5.75 3.976H202V69h-3.5c-3.417 0-3.5.095-3.5 4 0 2.2-.389 4-.864 4s-2.111-1.8-3.636-4c-2.142-3.09-3.423-4-5.636-4H182v12M44.039 72.177C44.151 76.035 50.831 90.5 52.5 90.5c1.669 0 8.349-14.465 8.461-18.323.109-3.721-3.505-.026-5.689 5.818-1.335 3.572-2.552 6.618-2.704 6.77-.152.152-1.392-2.77-2.756-6.494-2.231-6.092-5.886-9.95-5.773-6.094m24.536 8.073C64.412 91.003 64.413 91 66.892 91c1.183 0 2.126-.936 2.519-2.5.52-2.072 1.227-2.5 4.133-2.5 2.819 0 3.692.49 4.456 2.5.572 1.505 1.739 2.5 2.93 2.5 1.922 0 1.907-.194-.51-6.617-6.338-16.838-6.857-17.019-11.845-4.133M89 81c0 9.333.133 10 2 10 1.619 0 2-.667 2-3.5 0-2.773.395-3.5 1.901-3.5 1.113 0 2.758 1.451 3.966 3.5 1.334 2.26 2.821 3.5 4.198 3.5h2.133l-2.059-3.489c-1.935-3.28-1.962-3.658-.442-6.306 3.388-5.902-.51-10.205-9.244-10.205H89v10m23 .124v10.124l5.508-.457C133.513 89.464 132.137 71 116.032 71H112v10.124M136 81c0 9.333.133 10 2 10 1.704 0 2-.667 2-4.5V82h3.943c3.921 0 3.944.022 4.25 4.241.224 3.094.78 4.332 2.057 4.574 1.573.298 1.75-.692 1.75-9.815s-.177-10.113-1.75-9.815c-1.223.232-1.843 1.458-2.06 4.073-.302 3.637-.421 3.742-4.25 3.742-3.93 0-3.94-.01-3.94-4 0-3.333-.333-4-2-4-1.867 0-2 .667-2 10m26.984-1.25a4132.065 4132.065 0 0 0-3.74 10c-.274.747.382 1.25 1.63 1.25 1.393 0 2.297-.832 2.715-2.5.531-2.116 1.21-2.5 4.411-2.5 3.201 0 3.88.384 4.411 2.5.418 1.668 1.322 2.5 2.715 2.5 1.585 0 1.922-.422 1.398-1.75-.38-.963-2.103-5.463-3.829-10-4.164-10.946-5.443-10.88-9.711.5m20.441-7.416c-1.339 3.49.069 18.143 1.776 18.469 1.431.273 1.748-.674 2-5.982l.299-6.307 4.898 6.243C199.274 93.523 200 93.164 200 81c0-8.222-.267-10-1.5-10-1.167 0-1.5 1.333-1.5 6 0 7.387-.383 7.387-6 0-4.483-5.895-6.602-7.201-7.575-4.666M93 78c0 2.925.209 3.107 3.25 2.813 2.716-.262 3.25-.723 3.25-2.813 0-2.09-.534-2.551-3.25-2.813C93.209 74.893 93 75.075 93 78m23 3v6.127l3.219-.314c7.407-.721 7.407-10.905 0-11.626L116 74.873V81m-43.724-1.549C71.232 82.853 71.289 83 73.661 83c2.103 0 2.371-.338 1.785-2.25-1.416-4.631-2.065-4.897-3.17-1.299M95 77.5c0 .825.675 1.5 1.5 1.5s1.5-.675 1.5-1.5-.675-1.5-1.5-1.5-1.5.675-1.5 1.5m23 3c0 3.749.316 4.5 1.893 4.5 3.188 0 4.177-4.787 1.536-7.429C118.861 75.004 118 75.74 118 80.5m48.306-.5c-1.063 2.817-.985 3 1.281 3 2.583 0 2.714-.275 1.783-3.75-.817-3.048-1.713-2.829-3.064.75M71.5 99c-.495.801 6.65 8.639 20.613 22.613L113.483 143h20.908l20.805-20.719C174.579 102.978 177.922 99 174.759 99c-.683 0-10.497 9.248-21.809 20.55l-20.568 20.55-6.941-.3-6.941-.3 19.25-19.607C148.338 109.109 157 99.996 157 99.643c0-2.524-5.108 1.871-22.786 19.607l-20.185 20.25-20.886-20.863C79.182 104.692 72.006 98.181 71.5 99m18.975.041C89.736 100.236 114.538 126 116.427 126c1.335 0 25.573-24.546 25.573-25.898 0-2.796-3.446-.442-10.373 7.086l-7.534 8.187-9.131-8.803c-7.069-6.814-9.395-8.529-10.297-7.591-.898.935.885 3.138 7.796 9.632l8.961 8.42-2.641 2.641-2.641 2.64-12.469-12.225c-8.078-7.921-12.725-11.811-13.196-11.048"
        fill="#394149" />
    </g>
   
</svg>